solid OpenSCAD_Model
  facet normal -0.589689867776919 -0.43734381256783655 0.6789670459233413
    outer loop
      vertex 1.3952175181891722 13.647083599220784 0.6
      vertex 0.9332899557988694 13.338433469765448 0
      vertex 1.108126144109592 13.102694159399467 0
    endloop
  endfacet
  facet normal -0.4930375970929097 -0.5439831600362102 0.6789670459233412
    outer loop
      vertex 1.6980640421105369 13.278064042110538 0.6
      vertex 1.3052269414513435 12.885226941451345 0
      vertex 1.5226941593994676 12.688126144109592 0
    endloop
  endfacet
  facet normal -0.54398316003621 -0.4930375970929101 0.6789670459233411
    outer loop
      vertex 1.5375763959777793 13.455134872823715 0.6
      vertex 1.108126144109592 13.102694159399467 0
      vertex 1.3052269414513435 12.885226941451345 0
    endloop
  endfacet
  facet normal -0.4373438125678358 -0.5896898677769196 0.6789670459233416
    outer loop
      vertex 1.8751348728237152 13.11757639597778 0.6
      vertex 1.5226941593994676 12.688126144109592 0
      vertex 1.758433469765449 12.51328995579887 0
    endloop
  endfacet
  facet normal -0.6912522275288174 -0.24733400188122057 0.678967045923341
    outer loop
      vertex 1.0896730713187874 14.293103054463671 0.6
      vertex 0.5580395514675603 14.131833789322304 0
      vertex 0.6569158425819852 13.855493068019223 0
    endloop
  endfacet
  facet normal -0.6636806875441514 -0.3138975876477144 0.6789670459233407
    outer loop
      vertex 1.1701822495327 14.068094974888716 0.6
      vertex 0.6569158425819852 13.855493068019223 0
      vertex 0.7824021445877898 13.590174574122248 0
    endloop
  endfacet
  facet normal -0.6297175397336644 -0.3774381680512885 0.678967045923341
    outer loop
      vertex 1.2723584025590982 13.85206165013669 0.6
      vertex 0.7824021445877898 13.590174574122248 0
      vertex 0.9332899557988694 13.338433469765448 0
    endloop
  endfacet
  facet normal -0.7121666306854771 -0.17838845447008897 0.678967045923341
    outer loop
      vertex 1.0316062153143553 14.524918938053318 0.6
      vertex 0.4867255039792274 14.416535425822136 0
      vertex 0.5580395514675603 14.131833789322304 0
    endloop
  endfacet
  facet normal -0.726222479878754 -0.1077249287253627 0.6789670459233409
    outer loop
      vertex 0.9965408970852982 14.761310111975236 0.6
      vertex 0.4436604933785223 14.706856145125482 0
      vertex 0.4867255039792274 14.416535425822136 0
    endloop
  endfacet
  facet normal -0.7332844095972085 -0.03602395302857496 0.6789670459233412
    outer loop
      vertex 0.4436604933785223 14.706856145125482 0
      vertex 0.9848148148148147 15 0.6
      vertex 0.4292592592592592 15 0
    endloop
  endfacet
  facet normal -0.37743816805128944 -0.6297175397336638 0.678967045923341
    outer loop
      vertex 2.0670835992207834 12.975217518189172 0.6
      vertex 1.758433469765449 12.51328995579887 0
      vertex 2.0101745741222476 12.36240214458779 0
    endloop
  endfacet
  facet normal -0.3138975876477174 -0.6636806875441499 0.6789670459233409
    outer loop
      vertex 2.272061650136691 12.852358402559098 0.6
      vertex 2.0101745741222476 12.36240214458779 0
      vertex 2.2754930680192222 12.236915842581984 0
    endloop
  endfacet
  facet normal -0.24733400188121843 -0.6912522275288172 0.6789670459233422
    outer loop
      vertex 2.4880949748887167 12.7501822495327 0.6
      vertex 2.2754930680192222 12.236915842581984 0
      vertex 2.5518337893223024 12.13803955146756 0
    endloop
  endfacet
  facet normal -0.1783884544700878 -0.7121666306854768 0.6789670459233418
    outer loop
      vertex 2.7131030544636703 12.669673071318789 0.6
      vertex 2.5518337893223024 12.13803955146756 0
      vertex 2.836535425822135 12.066725503979228 0
    endloop
  endfacet
  facet normal -0.10772492872536561 -0.726222479878753 0.6789670459233416
    outer loop
      vertex 2.944918938053317 12.611606215314357 0.6
      vertex 2.836535425822135 12.066725503979228 0
      vertex 3.1268561451254806 12.023660493378522 0
    endloop
  endfacet
  facet normal -0.036023953028572205 -0.7332844095972083 0.6789670459233413
    outer loop
      vertex 3.1268561451254806 12.023660493378522 0
      vertex 3.42 12.00925925925926 0
      vertex 3.1813101119752365 12.576540897085298 0.6
    endloop
  endfacet
  facet normal -0.5896898677769199 -0.43734381256783583 0.678967045923341
    outer loop
      vertex 1.3952175181891722 13.647083599220784 0.6
      vertex 1.108126144109592 13.102694159399467 0
      vertex 1.5375763959777793 13.455134872823715 0.6
    endloop
  endfacet
  facet normal -0.5439831600362091 -0.49303759709291073 0.6789670459233413
    outer loop
      vertex 1.5375763959777793 13.455134872823715 0.6
      vertex 1.3052269414513435 12.885226941451345 0
      vertex 1.6980640421105369 13.278064042110538 0.6
    endloop
  endfacet
  facet normal -0.49303759709290906 -0.5439831600362106 0.6789670459233416
    outer loop
      vertex 1.6980640421105369 13.278064042110538 0.6
      vertex 1.5226941593994676 12.688126144109592 0
      vertex 1.8751348728237152 13.11757639597778 0.6
    endloop
  endfacet
  facet normal -0.4373438125678379 -0.5896898677769186 0.678967045923341
    outer loop
      vertex 1.8751348728237152 13.11757639597778 0.6
      vertex 1.758433469765449 12.51328995579887 0
      vertex 2.0670835992207834 12.975217518189172 0.6
    endloop
  endfacet
  facet normal -0.6636806875441505 -0.31389758764771547 0.6789670459233409
    outer loop
      vertex 1.1701822495327 14.068094974888716 0.6
      vertex 0.7824021445877898 13.590174574122248 0
      vertex 1.2723584025590982 13.85206165013669 0.6
    endloop
  endfacet
  facet normal -0.6912522275288183 -0.24733400188121946 0.6789670459233406
    outer loop
      vertex 1.1701822495327 14.068094974888716 0.6
      vertex 1.0896730713187874 14.293103054463671 0.6
      vertex 0.6569158425819852 13.855493068019223 0
    endloop
  endfacet
  facet normal -0.7121666306854771 -0.17838845447008922 0.6789670459233411
    outer loop
      vertex 1.0896730713187874 14.293103054463671 0.6
      vertex 1.0316062153143553 14.524918938053318 0.6
      vertex 0.5580395514675603 14.131833789322304 0
    endloop
  endfacet
  facet normal -0.7262224798787541 -0.10772492872536281 0.678967045923341
    outer loop
      vertex 1.0316062153143553 14.524918938053318 0.6
      vertex 0.9965408970852982 14.761310111975236 0.6
      vertex 0.4867255039792274 14.416535425822136 0
    endloop
  endfacet
  facet normal -0.7332844095972085 -0.036023953028574605 0.678967045923341
    outer loop
      vertex 0.9965408970852982 14.761310111975236 0.6
      vertex 0.9848148148148147 15 0.6
      vertex 0.4436604933785223 14.706856145125482 0
    endloop
  endfacet
  facet normal -0.6297175397336631 -0.3774381680512898 0.6789670459233415
    outer loop
      vertex 1.2723584025590982 13.85206165013669 0.6
      vertex 0.9332899557988694 13.338433469765448 0
      vertex 1.3952175181891722 13.647083599220784 0.6
    endloop
  endfacet
  facet normal -0.3774381680512899 -0.6297175397336636 0.6789670459233408
    outer loop
      vertex 2.0670835992207834 12.975217518189172 0.6
      vertex 2.0101745741222476 12.36240214458779 0
      vertex 2.272061650136691 12.852358402559098 0.6
    endloop
  endfacet
  facet normal -0.31389758764771164 -0.6636806875441512 0.6789670459233423
    outer loop
      vertex 2.272061650136691 12.852358402559098 0.6
      vertex 2.2754930680192222 12.236915842581984 0
      vertex 2.4880949748887167 12.7501822495327 0.6
    endloop
  endfacet
  facet normal -0.24733400188122026 -0.6912522275288169 0.6789670459233418
    outer loop
      vertex 2.4880949748887167 12.7501822495327 0.6
      vertex 2.5518337893223024 12.13803955146756 0
      vertex 2.7131030544636703 12.669673071318789 0.6
    endloop
  endfacet
  facet normal -0.17838845447008844 -0.7121666306854767 0.6789670459233416
    outer loop
      vertex 2.7131030544636703 12.669673071318789 0.6
      vertex 2.836535425822135 12.066725503979228 0
      vertex 2.944918938053317 12.611606215314357 0.6
    endloop
  endfacet
  facet normal -0.10772492872536683 -0.7262224798787531 0.6789670459233413
    outer loop
      vertex 2.944918938053317 12.611606215314357 0.6
      vertex 3.1268561451254806 12.023660493378522 0
      vertex 3.1813101119752365 12.576540897085298 0.6
    endloop
  endfacet
  facet normal -0.036023953028573655 -0.7332844095972088 0.6789670459233411
    outer loop
      vertex 3.42 12.564814814814815 0.6
      vertex 3.1813101119752365 12.576540897085298 0.6
      vertex 3.42 12.00925925925926 0
    endloop
  endfacet
  facet normal -0.7332844095972086 0.03602395302857482 0.6789670459233411
    outer loop
      vertex 0.9965408970852982 15.238689888024764 0.6
      vertex 0.4436604933785223 15.293143854874518 0
      vertex 0.4292592592592592 15 0
    endloop
  endfacet
  facet normal -0.726222479878754 0.10772492872536264 0.6789670459233409
    outer loop
      vertex 1.0316062153143553 15.475081061946682 0.6
      vertex 0.4867255039792274 15.583464574177864 0
      vertex 0.4436604933785223 15.293143854874518 0
    endloop
  endfacet
  facet normal -0.7121666306854771 0.17838845447008897 0.678967045923341
    outer loop
      vertex 1.0896730713187874 15.706896945536329 0.6
      vertex 0.5580395514675603 15.868166210677696 0
      vertex 0.4867255039792274 15.583464574177864 0
    endloop
  endfacet
  facet normal -0.691252227528818 0.2473340018812191 0.6789670459233411
    outer loop
      vertex 1.1701822495327 15.931905025111284 0.6
      vertex 0.6569158425819852 16.14450693198078 0
      vertex 0.5580395514675603 15.868166210677696 0
    endloop
  endfacet
  facet normal -0.6636806875441504 0.31389758764771586 0.6789670459233411
    outer loop
      vertex 1.2723584025590982 16.14793834986331 0.6
      vertex 0.7824021445877898 16.409825425877752 0
      vertex 0.6569158425819852 16.14450693198078 0
    endloop
  endfacet
  facet normal -0.6297175397336645 0.37743816805128866 0.6789670459233408
    outer loop
      vertex 1.3952175181891722 16.35291640077922 0.6
      vertex 0.9332899557988694 16.661566530234552 0
      vertex 0.7824021445877898 16.409825425877752 0
    endloop
  endfacet
  facet normal -0.5896898677769176 0.4373438125678389 0.6789670459233412
    outer loop
      vertex 0.9332899557988694 16.661566530234552 0
      vertex 1.5375763959777793 16.544865127176283 0.6
      vertex 1.108126144109592 16.89730584060053 0
    endloop
  endfacet
  facet normal -0.5439831600362138 0.4930375970929057 0.6789670459233411
    outer loop
      vertex 1.3052269414513435 17.114773058548657 0
      vertex 1.108126144109592 16.89730584060053 0
      vertex 1.6980640421105369 16.721935957889464 0.6
    endloop
  endfacet
  facet normal -0.4930375970929075 0.5439831600362128 0.6789670459233407
    outer loop
      vertex 1.5226941593994676 17.311873855890408 0
      vertex 1.3052269414513435 17.114773058548657 0
      vertex 1.8751348728237152 16.88242360402222 0.6
    endloop
  endfacet
  facet normal -0.4373438125678337 0.5896898677769227 0.6789670459233401
    outer loop
      vertex 1.758433469765449 17.48671004420113 0
      vertex 1.5226941593994676 17.311873855890408 0
      vertex 2.0670835992207834 17.024782481810828 0.6
    endloop
  endfacet
  facet normal -0.37743816805129277 0.629717539733662 0.6789670459233408
    outer loop
      vertex 1.758433469765449 17.48671004420113 0
      vertex 2.272061650136691 17.147641597440902 0.6
      vertex 2.0101745741222476 17.63759785541221 0
    endloop
  endfacet
  facet normal -0.3138975876477132 0.6636806875441504 0.6789670459233422
    outer loop
      vertex 2.0101745741222476 17.63759785541221 0
      vertex 2.4880949748887167 17.249817750467297 0.6
      vertex 2.2754930680192222 17.763084157418014 0
    endloop
  endfacet
  facet normal -0.24733400188122212 0.6912522275288152 0.6789670459233427
    outer loop
      vertex 2.2754930680192222 17.763084157418014 0
      vertex 2.7131030544636703 17.33032692868121 0.6
      vertex 2.5518337893223024 17.86196044853244 0
    endloop
  endfacet
  facet normal -0.17838845447008772 0.7121666306854769 0.6789670459233416
    outer loop
      vertex 2.836535425822135 17.933274496020772 0
      vertex 2.5518337893223024 17.86196044853244 0
      vertex 2.944918938053317 17.388393784685643 0.6
    endloop
  endfacet
  facet normal -0.10772492872536575 0.7262224798787532 0.6789670459233415
    outer loop
      vertex 3.1268561451254806 17.97633950662148 0
      vertex 2.836535425822135 17.933274496020772 0
      vertex 3.1813101119752365 17.423459102914702 0.6
    endloop
  endfacet
  facet normal -0.036023953028572274 0.7332844095972098 0.6789670459233399
    outer loop
      vertex 3.1268561451254806 17.97633950662148 0
      vertex 3.42 17.435185185185187 0.6
      vertex 3.42 17.99074074074074 0
    endloop
  endfacet
  facet normal -0.7332844095972085 0.036023953028574605 0.6789670459233412
    outer loop
      vertex 0.9965408970852982 15.238689888024764 0.6
      vertex 0.4292592592592592 15 0
      vertex 0.9848148148148147 15 0.6
    endloop
  endfacet
  facet normal -0.7262224798787541 0.10772492872536281 0.678967045923341
    outer loop
      vertex 1.0316062153143553 15.475081061946682 0.6
      vertex 0.4436604933785223 15.293143854874518 0
      vertex 0.9965408970852982 15.238689888024764 0.6
    endloop
  endfacet
  facet normal -0.7121666306854771 0.17838845447008922 0.6789670459233409
    outer loop
      vertex 1.0896730713187874 15.706896945536329 0.6
      vertex 0.4867255039792274 15.583464574177864 0
      vertex 1.0316062153143553 15.475081061946682 0.6
    endloop
  endfacet
  facet normal -0.691252227528818 0.24733400188121935 0.678967045923341
    outer loop
      vertex 1.1701822495327 15.931905025111284 0.6
      vertex 0.5580395514675603 15.868166210677696 0
      vertex 1.0896730713187874 15.706896945536329 0.6
    endloop
  endfacet
  facet normal -0.6636806875441505 0.3138975876477154 0.6789670459233411
    outer loop
      vertex 1.1701822495327 15.931905025111284 0.6
      vertex 1.2723584025590982 16.14793834986331 0.6
      vertex 0.6569158425819852 16.14450693198078 0
    endloop
  endfacet
  facet normal -0.6297175397336648 0.37743816805128766 0.678967045923341
    outer loop
      vertex 1.2723584025590982 16.14793834986331 0.6
      vertex 1.3952175181891722 16.35291640077922 0.6
      vertex 0.7824021445877898 16.409825425877752 0
    endloop
  endfacet
  facet normal -0.5896898677769163 0.4373438125678414 0.6789670459233407
    outer loop
      vertex 1.3952175181891722 16.35291640077922 0.6
      vertex 1.5375763959777793 16.544865127176283 0.6
      vertex 0.9332899557988694 16.661566530234552 0
    endloop
  endfacet
  facet normal -0.543983160036214 0.49303759709290534 0.6789670459233412
    outer loop
      vertex 1.5375763959777793 16.544865127176283 0.6
      vertex 1.6980640421105369 16.721935957889464 0.6
      vertex 1.108126144109592 16.89730584060053 0
    endloop
  endfacet
  facet normal -0.4930375970929091 0.5439831600362106 0.6789670459233412
    outer loop
      vertex 1.3052269414513435 17.114773058548657 0
      vertex 1.6980640421105369 16.721935957889464 0.6
      vertex 1.8751348728237152 16.88242360402222 0.6
    endloop
  endfacet
  facet normal -0.4373438125678346 0.5896898677769216 0.6789670459233405
    outer loop
      vertex 1.5226941593994676 17.311873855890408 0
      vertex 1.8751348728237152 16.88242360402222 0.6
      vertex 2.0670835992207834 17.024782481810828 0.6
    endloop
  endfacet
  facet normal -0.37743816805129027 0.6297175397336642 0.6789670459233399
    outer loop
      vertex 1.758433469765449 17.48671004420113 0
      vertex 2.0670835992207834 17.024782481810828 0.6
      vertex 2.272061650136691 17.147641597440902 0.6
    endloop
  endfacet
  facet normal -0.31389758764770787 0.6636806875441547 0.6789670459233407
    outer loop
      vertex 2.4880949748887167 17.249817750467297 0.6
      vertex 2.0101745741222476 17.63759785541221 0
      vertex 2.272061650136691 17.147641597440902 0.6
    endloop
  endfacet
  facet normal -0.24733400188122007 0.6912522275288167 0.6789670459233421
    outer loop
      vertex 2.2754930680192222 17.763084157418014 0
      vertex 2.4880949748887167 17.249817750467297 0.6
      vertex 2.7131030544636703 17.33032692868121 0.6
    endloop
  endfacet
  facet normal -0.17838845447009322 0.712166630685474 0.6789670459233431
    outer loop
      vertex 2.5518337893223024 17.86196044853244 0
      vertex 2.7131030544636703 17.33032692868121 0.6
      vertex 2.944918938053317 17.388393784685643 0.6
    endloop
  endfacet
  facet normal -0.10772492872536674 0.7262224798787529 0.6789670459233417
    outer loop
      vertex 2.836535425822135 17.933274496020772 0
      vertex 2.944918938053317 17.388393784685643 0.6
      vertex 3.1813101119752365 17.423459102914702 0.6
    endloop
  endfacet
  facet normal -0.03602395302857912 0.7332844095972079 0.6789670459233416
    outer loop
      vertex 3.1268561451254806 17.97633950662148 0
      vertex 3.1813101119752365 17.423459102914702 0.6
      vertex 3.42 17.435185185185187 0.6
    endloop
  endfacet
  facet normal 0.0360239530285723 -0.7332844095972088 0.6789670459233411
    outer loop
      vertex 3.42 12.564814814814815 0.6
      vertex 3.42 12.00925925925926 0
      vertex 3.7131438548745193 12.023660493378522 0
    endloop
  endfacet
  facet normal 0.10772492872536553 -0.7262224798787532 0.6789670459233413
    outer loop
      vertex 3.6586898880247634 12.576540897085298 0.6
      vertex 3.7131438548745193 12.023660493378522 0
      vertex 4.003464574177865 12.066725503979228 0
    endloop
  endfacet
  facet normal 0.17838845447008767 -0.7121666306854768 0.6789670459233417
    outer loop
      vertex 3.8950810619466827 12.611606215314357 0.6
      vertex 4.003464574177865 12.066725503979228 0
      vertex 4.288166210677698 12.13803955146756 0
    endloop
  endfacet
  facet normal 0.2473340018812188 -0.6912522275288172 0.6789670459233419
    outer loop
      vertex 4.12689694553633 12.669673071318789 0.6
      vertex 4.288166210677698 12.13803955146756 0
      vertex 4.564506931980778 12.236915842581984 0
    endloop
  endfacet
  facet normal 0.3138975876477169 -0.6636806875441489 0.678967045923342
    outer loop
      vertex 4.351905025111283 12.7501822495327 0.6
      vertex 4.564506931980778 12.236915842581984 0
      vertex 4.829825425877752 12.36240214458779 0
    endloop
  endfacet
  facet normal 0.3774381680512895 -0.6297175397336638 0.678967045923341
    outer loop
      vertex 4.567938349863309 12.852358402559098 0.6
      vertex 4.829825425877752 12.36240214458779 0
      vertex 5.081566530234551 12.51328995579887 0
    endloop
  endfacet
  facet normal 0.4373438125678358 -0.58968986777692 0.678967045923341
    outer loop
      vertex 4.772916400779216 12.975217518189172 0.6
      vertex 5.081566530234551 12.51328995579887 0
      vertex 5.3173058406005325 12.688126144109592 0
    endloop
  endfacet
  facet normal 0.4930375970929099 -0.5439831600362093 0.6789670459233417
    outer loop
      vertex 4.964865127176284 13.11757639597778 0.6
      vertex 5.3173058406005325 12.688126144109592 0
      vertex 5.534773058548656 12.885226941451345 0
    endloop
  endfacet
  facet normal 0.5439831600362098 -0.4930375970929101 0.6789670459233412
    outer loop
      vertex 5.534773058548656 12.885226941451345 0
      vertex 5.731873855890408 13.102694159399467 0
      vertex 5.141935957889463 13.278064042110538 0.6
    endloop
  endfacet
  facet normal 0.5896898677769189 -0.43734381256783667 0.6789670459233413
    outer loop
      vertex 5.90671004420113 13.338433469765448 0
      vertex 5.30242360402222 13.455134872823715 0.6
      vertex 5.731873855890408 13.102694159399467 0
    endloop
  endfacet
  facet normal 0.6297175397336642 -0.3774381680512884 0.6789670459233412
    outer loop
      vertex 6.05759785541221 13.590174574122248 0
      vertex 5.444782481810828 13.647083599220784 0.6
      vertex 5.90671004420113 13.338433469765448 0
    endloop
  endfacet
  facet normal 0.663680687544151 -0.3138975876477146 0.678967045923341
    outer loop
      vertex 6.05759785541221 13.590174574122248 0
      vertex 6.183084157418015 13.855493068019223 0
      vertex 5.567641597440901 13.85206165013669 0.6
    endloop
  endfacet
  facet normal 0.6912522275288179 -0.2473340018812205 0.6789670459233407
    outer loop
      vertex 6.281960448532439 14.131833789322304 0
      vertex 5.6698177504673 14.068094974888716 0.6
      vertex 6.183084157418015 13.855493068019223 0
    endloop
  endfacet
  facet normal 0.7121666306854768 -0.1783884544700899 0.6789670459233411
    outer loop
      vertex 6.353274496020773 14.416535425822136 0
      vertex 5.750326928681212 14.293103054463671 0.6
      vertex 6.281960448532439 14.131833789322304 0
    endloop
  endfacet
  facet normal 0.7262224798787537 -0.10772492872536153 0.6789670459233415
    outer loop
      vertex 6.396339506621477 14.706856145125482 0
      vertex 5.808393784685644 14.524918938053318 0.6
      vertex 6.353274496020773 14.416535425822136 0
    endloop
  endfacet
  facet normal 0.7332844095972088 -0.03602395302857456 0.6789670459233409
    outer loop
      vertex 6.41074074074074 15 0
      vertex 5.843459102914702 14.761310111975236 0.6
      vertex 6.396339506621477 14.706856145125482 0
    endloop
  endfacet
  facet normal 0.036023953028573634 -0.7332844095972083 0.6789670459233415
    outer loop
      vertex 3.6586898880247634 12.576540897085298 0.6
      vertex 3.42 12.564814814814815 0.6
      vertex 3.7131438548745193 12.023660493378522 0
    endloop
  endfacet
  facet normal 0.10772492872536679 -0.7262224798787529 0.6789670459233417
    outer loop
      vertex 3.8950810619466827 12.611606215314357 0.6
      vertex 3.6586898880247634 12.576540897085298 0.6
      vertex 4.003464574177865 12.066725503979228 0
    endloop
  endfacet
  facet normal 0.1783884544700884 -0.7121666306854765 0.6789670459233418
    outer loop
      vertex 4.12689694553633 12.669673071318789 0.6
      vertex 3.8950810619466827 12.611606215314357 0.6
      vertex 4.288166210677698 12.13803955146756 0
    endloop
  endfacet
  facet normal 0.24733400188122012 -0.6912522275288165 0.6789670459233423
    outer loop
      vertex 4.12689694553633 12.669673071318789 0.6
      vertex 4.564506931980778 12.236915842581984 0
      vertex 4.351905025111283 12.7501822495327 0.6
    endloop
  endfacet
  facet normal 0.3138975876477123 -0.6636806875441524 0.6789670459233409
    outer loop
      vertex 4.567938349863309 12.852358402559098 0.6
      vertex 4.351905025111283 12.7501822495327 0.6
      vertex 4.829825425877752 12.36240214458779 0
    endloop
  endfacet
  facet normal 0.3774381680512898 -0.6297175397336635 0.678967045923341
    outer loop
      vertex 4.567938349863309 12.852358402559098 0.6
      vertex 5.081566530234551 12.51328995579887 0
      vertex 4.772916400779216 12.975217518189172 0.6
    endloop
  endfacet
  facet normal 0.43734381256783805 -0.5896898677769175 0.6789670459233418
    outer loop
      vertex 4.964865127176284 13.11757639597778 0.6
      vertex 4.772916400779216 12.975217518189172 0.6
      vertex 5.3173058406005325 12.688126144109592 0
    endloop
  endfacet
  facet normal 0.49303759709290856 -0.5439831600362114 0.6789670459233412
    outer loop
      vertex 5.534773058548656 12.885226941451345 0
      vertex 5.141935957889463 13.278064042110538 0.6
      vertex 4.964865127176284 13.11757639597778 0.6
    endloop
  endfacet
  facet normal 0.5439831600362102 -0.4930375970929097 0.6789670459233413
    outer loop
      vertex 5.141935957889463 13.278064042110538 0.6
      vertex 5.731873855890408 13.102694159399467 0
      vertex 5.30242360402222 13.455134872823715 0.6
    endloop
  endfacet
  facet normal 0.5896898677769189 -0.43734381256783705 0.6789670459233415
    outer loop
      vertex 5.30242360402222 13.455134872823715 0.6
      vertex 5.90671004420113 13.338433469765448 0
      vertex 5.444782481810828 13.647083599220784 0.6
    endloop
  endfacet
  facet normal 0.629717539733664 -0.377438168051289 0.6789670459233411
    outer loop
      vertex 5.444782481810828 13.647083599220784 0.6
      vertex 6.05759785541221 13.590174574122248 0
      vertex 5.567641597440901 13.85206165013669 0.6
    endloop
  endfacet
  facet normal 0.6636806875441505 -0.3138975876477168 0.6789670459233407
    outer loop
      vertex 5.567641597440901 13.85206165013669 0.6
      vertex 6.183084157418015 13.855493068019223 0
      vertex 5.6698177504673 14.068094974888716 0.6
    endloop
  endfacet
  facet normal 0.6912522275288181 -0.24733400188121857 0.6789670459233411
    outer loop
      vertex 6.281960448532439 14.131833789322304 0
      vertex 5.750326928681212 14.293103054463671 0.6
      vertex 5.6698177504673 14.068094974888716 0.6
    endloop
  endfacet
  facet normal 0.7121666306854768 -0.1783884544700885 0.6789670459233415
    outer loop
      vertex 6.353274496020773 14.416535425822136 0
      vertex 5.808393784685644 14.524918938053318 0.6
      vertex 5.750326928681212 14.293103054463671 0.6
    endloop
  endfacet
  facet normal 0.7262224798787541 -0.10772492872536497 0.6789670459233408
    outer loop
      vertex 6.396339506621477 14.706856145125482 0
      vertex 5.843459102914702 14.761310111975236 0.6
      vertex 5.808393784685644 14.524918938053318 0.6
    endloop
  endfacet
  facet normal 0.7332844095972086 -0.036023953028573585 0.6789670459233411
    outer loop
      vertex 5.855185185185185 15 0.6
      vertex 5.843459102914702 14.761310111975236 0.6
      vertex 6.41074074074074 15 0
    endloop
  endfacet
  facet normal 0.036023953028572205 0.7332844095972083 0.6789670459233413
    outer loop
      vertex 3.42 17.99074074074074 0
      vertex 3.6586898880247634 17.423459102914702 0.6
      vertex 3.7131438548745193 17.97633950662148 0
    endloop
  endfacet
  facet normal 0.10772492872536554 0.726222479878753 0.6789670459233417
    outer loop
      vertex 3.7131438548745193 17.97633950662148 0
      vertex 3.8950810619466827 17.388393784685643 0.6
      vertex 4.003464574177865 17.933274496020772 0
    endloop
  endfacet
  facet normal 0.17838845447008742 0.7121666306854757 0.6789670459233429
    outer loop
      vertex 4.003464574177865 17.933274496020772 0
      vertex 4.12689694553633 17.33032692868121 0.6
      vertex 4.288166210677698 17.86196044853244 0
    endloop
  endfacet
  facet normal 0.24733400188122268 0.6912522275288155 0.6789670459233422
    outer loop
      vertex 4.288166210677698 17.86196044853244 0
      vertex 4.351905025111283 17.249817750467297 0.6
      vertex 4.564506931980778 17.763084157418014 0
    endloop
  endfacet
  facet normal 0.3138975876477138 0.6636806875441518 0.6789670459233408
    outer loop
      vertex 4.829825425877752 17.63759785541221 0
      vertex 4.564506931980778 17.763084157418014 0
      vertex 4.567938349863309 17.147641597440902 0.6
    endloop
  endfacet
  facet normal 0.3774381680512931 0.6297175397336625 0.67896704592334
    outer loop
      vertex 5.081566530234551 17.48671004420113 0
      vertex 4.829825425877752 17.63759785541221 0
      vertex 4.772916400779216 17.024782481810828 0.6
    endloop
  endfacet
  facet normal 0.7332844095972086 0.03602395302857454 0.6789670459233411
    outer loop
      vertex 6.41074074074074 15 0
      vertex 6.396339506621477 15.293143854874518 0
      vertex 5.855185185185185 15 0.6
    endloop
  endfacet
  facet normal 0.7262224798787543 0.10772492872536164 0.6789670459233408
    outer loop
      vertex 6.396339506621477 15.293143854874518 0
      vertex 6.353274496020773 15.583464574177864 0
      vertex 5.843459102914702 15.238689888024764 0.6
    endloop
  endfacet
  facet normal 0.7121666306854765 0.17838845447008986 0.6789670459233415
    outer loop
      vertex 6.353274496020773 15.583464574177864 0
      vertex 6.281960448532439 15.868166210677696 0
      vertex 5.808393784685644 15.475081061946682 0.6
    endloop
  endfacet
  facet normal 0.6297175397336643 0.3774381680512884 0.6789670459233411
    outer loop
      vertex 6.05759785541221 16.409825425877752 0
      vertex 5.90671004420113 16.661566530234552 0
      vertex 5.567641597440901 16.14793834986331 0.6
    endloop
  endfacet
  facet normal 0.6636806875441502 0.31389758764771636 0.6789670459233412
    outer loop
      vertex 6.05759785541221 16.409825425877752 0
      vertex 5.6698177504673 15.931905025111284 0.6
      vertex 6.183084157418015 16.14450693198078 0
    endloop
  endfacet
  facet normal 0.691252227528818 0.24733400188121893 0.6789670459233411
    outer loop
      vertex 6.281960448532439 15.868166210677696 0
      vertex 6.183084157418015 16.14450693198078 0
      vertex 5.750326928681212 15.706896945536329 0.6
    endloop
  endfacet
  facet normal 0.43734381256783317 0.5896898677769224 0.6789670459233407
    outer loop
      vertex 5.081566530234551 17.48671004420113 0
      vertex 4.964865127176284 16.88242360402222 0.6
      vertex 5.3173058406005325 17.311873855890408 0
    endloop
  endfacet
  facet normal 0.5439831600362136 0.4930375970929055 0.6789670459233415
    outer loop
      vertex 5.534773058548656 17.114773058548657 0
      vertex 5.30242360402222 16.544865127176283 0.6
      vertex 5.731873855890408 16.89730584060053 0
    endloop
  endfacet
  facet normal 0.4930375970929078 0.5439831600362119 0.6789670459233411
    outer loop
      vertex 5.3173058406005325 17.311873855890408 0
      vertex 5.141935957889463 16.721935957889464 0.6
      vertex 5.534773058548656 17.114773058548657 0
    endloop
  endfacet
  facet normal 0.589689867776918 0.4373438125678392 0.6789670459233406
    outer loop
      vertex 5.90671004420113 16.661566530234552 0
      vertex 5.731873855890408 16.89730584060053 0
      vertex 5.444782481810828 16.35291640077922 0.6
    endloop
  endfacet
  facet normal 0.03602395302857915 0.7332844095972095 0.6789670459233398
    outer loop
      vertex 3.42 17.435185185185187 0.6
      vertex 3.6586898880247634 17.423459102914702 0.6
      vertex 3.42 17.99074074074074 0
    endloop
  endfacet
  facet normal 0.10772492872536674 0.7262224798787531 0.6789670459233415
    outer loop
      vertex 3.7131438548745193 17.97633950662148 0
      vertex 3.6586898880247634 17.423459102914702 0.6
      vertex 3.8950810619466827 17.388393784685643 0.6
    endloop
  endfacet
  facet normal 0.1783884544700937 0.7121666306854755 0.6789670459233416
    outer loop
      vertex 4.003464574177865 17.933274496020772 0
      vertex 3.8950810619466827 17.388393784685643 0.6
      vertex 4.12689694553633 17.33032692868121 0.6
    endloop
  endfacet
  facet normal 0.24733400188121982 0.6912522275288161 0.678967045923343
    outer loop
      vertex 4.288166210677698 17.86196044853244 0
      vertex 4.12689694553633 17.33032692868121 0.6
      vertex 4.351905025111283 17.249817750467297 0.6
    endloop
  endfacet
  facet normal 0.31389758764770703 0.6636806875441531 0.6789670459233424
    outer loop
      vertex 4.564506931980778 17.763084157418014 0
      vertex 4.351905025111283 17.249817750467297 0.6
      vertex 4.567938349863309 17.147641597440902 0.6
    endloop
  endfacet
  facet normal 0.3774381680512898 0.6297175397336635 0.6789670459233409
    outer loop
      vertex 4.567938349863309 17.147641597440902 0.6
      vertex 4.772916400779216 17.024782481810828 0.6
      vertex 4.829825425877752 17.63759785541221 0
    endloop
  endfacet
  facet normal 0.6297175397336657 0.3774381680512868 0.6789670459233406
    outer loop
      vertex 5.444782481810828 16.35291640077922 0.6
      vertex 5.567641597440901 16.14793834986331 0.6
      vertex 5.90671004420113 16.661566530234552 0
    endloop
  endfacet
  facet normal 0.7332844095972088 0.03602395302857349 0.6789670459233408
    outer loop
      vertex 6.396339506621477 15.293143854874518 0
      vertex 5.843459102914702 15.238689888024764 0.6
      vertex 5.855185185185185 15 0.6
    endloop
  endfacet
  facet normal 0.7262224798787532 0.1077249287253647 0.6789670459233416
    outer loop
      vertex 6.353274496020773 15.583464574177864 0
      vertex 5.808393784685644 15.475081061946682 0.6
      vertex 5.843459102914702 15.238689888024764 0.6
    endloop
  endfacet
  facet normal 0.712166630685477 0.17838845447008866 0.6789670459233411
    outer loop
      vertex 6.281960448532439 15.868166210677696 0
      vertex 5.750326928681212 15.706896945536329 0.6
      vertex 5.808393784685644 15.475081061946682 0.6
    endloop
  endfacet
  facet normal 0.6912522275288181 0.2473340018812187 0.678967045923341
    outer loop
      vertex 5.750326928681212 15.706896945536329 0.6
      vertex 6.183084157418015 16.14450693198078 0
      vertex 5.6698177504673 15.931905025111284 0.6
    endloop
  endfacet
  facet normal 0.66368068754415 0.3138975876477166 0.6789670459233412
    outer loop
      vertex 5.567641597440901 16.14793834986331 0.6
      vertex 5.6698177504673 15.931905025111284 0.6
      vertex 6.05759785541221 16.409825425877752 0
    endloop
  endfacet
  facet normal 0.43734381256783555 0.5896898677769212 0.67896704592334
    outer loop
      vertex 4.772916400779216 17.024782481810828 0.6
      vertex 4.964865127176284 16.88242360402222 0.6
      vertex 5.081566530234551 17.48671004420113 0
    endloop
  endfacet
  facet normal 0.49303759709290856 0.5439831600362116 0.6789670459233409
    outer loop
      vertex 5.3173058406005325 17.311873855890408 0
      vertex 4.964865127176284 16.88242360402222 0.6
      vertex 5.141935957889463 16.721935957889464 0.6
    endloop
  endfacet
  facet normal 0.5439831600362154 0.4930375970929044 0.6789670459233409
    outer loop
      vertex 5.534773058548656 17.114773058548657 0
      vertex 5.141935957889463 16.721935957889464 0.6
      vertex 5.30242360402222 16.544865127176283 0.6
    endloop
  endfacet
  facet normal 0.5896898677769147 0.43734381256784205 0.6789670459233416
    outer loop
      vertex 5.731873855890408 16.89730584060053 0
      vertex 5.30242360402222 16.544865127176283 0.6
      vertex 5.444782481810828 16.35291640077922 0.6
    endloop
  endfacet
  facet normal 0 0 -1
    outer loop
      vertex 1.108126144109592 13.102694159399467 0
      vertex 0.9332899557988694 13.338433469765448 0
      vertex 2.5518337893223024 17.86196044853244 0
    endloop
  endfacet
  facet normal 0 0 -1
    outer loop
      vertex 0.9332899557988694 13.338433469765448 0
      vertex 0.7824021445877898 13.590174574122248 0
      vertex 2.5518337893223024 17.86196044853244 0
    endloop
  endfacet
  facet normal 0 0 -1
    outer loop
      vertex 1.3052269414513435 12.885226941451345 0
      vertex 1.108126144109592 13.102694159399467 0
      vertex 2.836535425822135 17.933274496020772 0
    endloop
  endfacet
  facet normal 0 0 -1
    outer loop
      vertex 1.5226941593994676 12.688126144109592 0
      vertex 1.3052269414513435 12.885226941451345 0
      vertex 5.534773058548656 17.114773058548657 0
    endloop
  endfacet
  facet normal 0 0 -1
    outer loop
      vertex 1.758433469765449 12.51328995579887 0
      vertex 1.5226941593994676 12.688126144109592 0
      vertex 5.534773058548656 17.114773058548657 0
    endloop
  endfacet
  facet normal 0 0 -1
    outer loop
      vertex 2.0101745741222476 12.36240214458779 0
      vertex 1.758433469765449 12.51328995579887 0
      vertex 5.534773058548656 17.114773058548657 0
    endloop
  endfacet
  facet normal 0 0 -1
    outer loop
      vertex 2.2754930680192222 12.236915842581984 0
      vertex 2.0101745741222476 12.36240214458779 0
      vertex 5.534773058548656 17.114773058548657 0
    endloop
  endfacet
  facet normal 0 0 1
    outer loop
      vertex 1.6980640421105369 13.278064042110538 0.6
      vertex 1.8751348728237152 13.11757639597778 0.6
      vertex 1.1701822495327 14.068094974888716 0.6
    endloop
  endfacet
  facet normal 0 0 1
    outer loop
      vertex 1.5375763959777793 13.455134872823715 0.6
      vertex 1.1701822495327 14.068094974888716 0.6
      vertex 1.2723584025590982 13.85206165013669 0.6
    endloop
  endfacet
  facet normal 0 0 1
    outer loop
      vertex 1.5375763959777793 13.455134872823715 0.6
      vertex 1.2723584025590982 13.85206165013669 0.6
      vertex 1.3952175181891722 13.647083599220784 0.6
    endloop
  endfacet
  facet normal 0 0 1
    outer loop
      vertex 1.5375763959777793 13.455134872823715 0.6
      vertex 1.6980640421105369 13.278064042110538 0.6
      vertex 1.1701822495327 14.068094974888716 0.6
    endloop
  endfacet
  facet normal 0 0 1
    outer loop
      vertex 1.1701822495327 14.068094974888716 0.6
      vertex 1.8751348728237152 13.11757639597778 0.6
      vertex 1.0896730713187874 14.293103054463671 0.6
    endloop
  endfacet
  facet normal 0 0 1
    outer loop
      vertex 1.8751348728237152 13.11757639597778 0.6
      vertex 1.0316062153143553 14.524918938053318 0.6
      vertex 1.0896730713187874 14.293103054463671 0.6
    endloop
  endfacet
  facet normal 0 0 1
    outer loop
      vertex 1.0316062153143553 14.524918938053318 0.6
      vertex 2.0670835992207834 12.975217518189172 0.6
      vertex 0.9965408970852982 14.761310111975236 0.6
    endloop
  endfacet
  facet normal 0 0 1
    outer loop
      vertex 0.9965408970852982 14.761310111975236 0.6
      vertex 2.272061650136691 12.852358402559098 0.6
      vertex 0.9848148148148147 15 0.6
    endloop
  endfacet
  facet normal 0 0 1
    outer loop
      vertex 1.8751348728237152 13.11757639597778 0.6
      vertex 2.0670835992207834 12.975217518189172 0.6
      vertex 1.0316062153143553 14.524918938053318 0.6
    endloop
  endfacet
  facet normal 0 0 1
    outer loop
      vertex 0.9965408970852982 14.761310111975236 0.6
      vertex 2.0670835992207834 12.975217518189172 0.6
      vertex 2.272061650136691 12.852358402559098 0.6
    endloop
  endfacet
  facet normal 0 0 1
    outer loop
      vertex 2.272061650136691 12.852358402559098 0.6
      vertex 0.9965408970852982 15.238689888024764 0.6
      vertex 0.9848148148148147 15 0.6
    endloop
  endfacet
  facet normal 0 0 1
    outer loop
      vertex 2.272061650136691 12.852358402559098 0.6
      vertex 1.0316062153143553 15.475081061946682 0.6
      vertex 0.9965408970852982 15.238689888024764 0.6
    endloop
  endfacet
  facet normal 0 0 1
    outer loop
      vertex 2.4880949748887167 12.7501822495327 0.6
      vertex 1.0896730713187874 15.706896945536329 0.6
      vertex 1.0316062153143553 15.475081061946682 0.6
    endloop
  endfacet
  facet normal 0 0 1
    outer loop
      vertex 2.4880949748887167 12.7501822495327 0.6
      vertex 1.1701822495327 15.931905025111284 0.6
      vertex 1.0896730713187874 15.706896945536329 0.6
    endloop
  endfacet
  facet normal 0 0 1
    outer loop
      vertex 2.4880949748887167 12.7501822495327 0.6
      vertex 1.2723584025590982 16.14793834986331 0.6
      vertex 1.1701822495327 15.931905025111284 0.6
    endloop
  endfacet
  facet normal 0 0 1
    outer loop
      vertex 2.272061650136691 12.852358402559098 0.6
      vertex 2.4880949748887167 12.7501822495327 0.6
      vertex 1.0316062153143553 15.475081061946682 0.6
    endloop
  endfacet
  facet normal 0 0 1
    outer loop
      vertex 2.4880949748887167 12.7501822495327 0.6
      vertex 2.7131030544636703 12.669673071318789 0.6
      vertex 1.2723584025590982 16.14793834986331 0.6
    endloop
  endfacet
  facet normal 0 0 1
    outer loop
      vertex 2.7131030544636703 12.669673071318789 0.6
      vertex 2.944918938053317 12.611606215314357 0.6
      vertex 1.3952175181891722 16.35291640077922 0.6
    endloop
  endfacet
  facet normal 0 0 1
    outer loop
      vertex 2.944918938053317 12.611606215314357 0.6
      vertex 3.1813101119752365 12.576540897085298 0.6
      vertex 1.5375763959777793 16.544865127176283 0.6
    endloop
  endfacet
  facet normal 0 0 1
    outer loop
      vertex 3.42 12.564814814814815 0.6
      vertex 1.6980640421105369 16.721935957889464 0.6
      vertex 3.1813101119752365 12.576540897085298 0.6
    endloop
  endfacet
  facet normal 0 0 1
    outer loop
      vertex 1.6980640421105369 16.721935957889464 0.6
      vertex 3.42 12.564814814814815 0.6
      vertex 3.6586898880247634 12.576540897085298 0.6
    endloop
  endfacet
  facet normal 0 0 1
    outer loop
      vertex 1.6980640421105369 16.721935957889464 0.6
      vertex 3.6586898880247634 12.576540897085298 0.6
      vertex 3.8950810619466827 12.611606215314357 0.6
    endloop
  endfacet
  facet normal 0 0 1
    outer loop
      vertex 1.6980640421105369 16.721935957889464 0.6
      vertex 3.8950810619466827 12.611606215314357 0.6
      vertex 4.12689694553633 12.669673071318789 0.6
    endloop
  endfacet
  facet normal 0 0 1
    outer loop
      vertex 1.6980640421105369 16.721935957889464 0.6
      vertex 4.12689694553633 12.669673071318789 0.6
      vertex 4.351905025111283 12.7501822495327 0.6
    endloop
  endfacet
  facet normal 0 0 -1
    outer loop
      vertex 0.5580395514675603 14.131833789322304 0
      vertex 2.0101745741222476 17.63759785541221 0
      vertex 0.6569158425819852 13.855493068019223 0
    endloop
  endfacet
  facet normal 0 0 -1
    outer loop
      vertex 0.4436604933785223 14.706856145125482 0
      vertex 2.0101745741222476 17.63759785541221 0
      vertex 0.4867255039792274 14.416535425822136 0
    endloop
  endfacet
  facet normal 0 0 -1
    outer loop
      vertex 0.4867255039792274 14.416535425822136 0
      vertex 2.0101745741222476 17.63759785541221 0
      vertex 0.5580395514675603 14.131833789322304 0
    endloop
  endfacet
  facet normal 0 0 -1
    outer loop
      vertex 0.4436604933785223 14.706856145125482 0
      vertex 0.4292592592592592 15 0
      vertex 2.0101745741222476 17.63759785541221 0
    endloop
  endfacet
  facet normal 0 0 -1
    outer loop
      vertex 0.4436604933785223 15.293143854874518 0
      vertex 0.4867255039792274 15.583464574177864 0
      vertex 1.758433469765449 17.48671004420113 0
    endloop
  endfacet
  facet normal 0 0 -1
    outer loop
      vertex 0.4292592592592592 15 0
      vertex 0.4436604933785223 15.293143854874518 0
      vertex 2.0101745741222476 17.63759785541221 0
    endloop
  endfacet
  facet normal 0 0 -1
    outer loop
      vertex 0.7824021445877898 16.409825425877752 0
      vertex 1.108126144109592 16.89730584060053 0
      vertex 0.6569158425819852 16.14450693198078 0
    endloop
  endfacet
  facet normal 0 0 -1
    outer loop
      vertex 0.4867255039792274 15.583464574177864 0
      vertex 0.5580395514675603 15.868166210677696 0
      vertex 1.758433469765449 17.48671004420113 0
    endloop
  endfacet
  facet normal 0 0 -1
    outer loop
      vertex 0.5580395514675603 15.868166210677696 0
      vertex 0.6569158425819852 16.14450693198078 0
      vertex 1.5226941593994676 17.311873855890408 0
    endloop
  endfacet
  facet normal 0 0 -1
    outer loop
      vertex 0.7824021445877898 13.590174574122248 0
      vertex 0.6569158425819852 13.855493068019223 0
      vertex 2.2754930680192222 17.763084157418014 0
    endloop
  endfacet
  facet normal 0 0 -1
    outer loop
      vertex 0.6569158425819852 13.855493068019223 0
      vertex 2.0101745741222476 17.63759785541221 0
      vertex 2.2754930680192222 17.763084157418014 0
    endloop
  endfacet
  facet normal 0 0 -1
    outer loop
      vertex 0.7824021445877898 13.590174574122248 0
      vertex 2.2754930680192222 17.763084157418014 0
      vertex 2.5518337893223024 17.86196044853244 0
    endloop
  endfacet
  facet normal 0 0 -1
    outer loop
      vertex 0.7824021445877898 16.409825425877752 0
      vertex 0.9332899557988694 16.661566530234552 0
      vertex 1.108126144109592 16.89730584060053 0
    endloop
  endfacet
  facet normal 0 0 -1
    outer loop
      vertex 0.6569158425819852 16.14450693198078 0
      vertex 1.108126144109592 16.89730584060053 0
      vertex 1.3052269414513435 17.114773058548657 0
    endloop
  endfacet
  facet normal 0 0 -1
    outer loop
      vertex 0.6569158425819852 16.14450693198078 0
      vertex 1.3052269414513435 17.114773058548657 0
      vertex 1.5226941593994676 17.311873855890408 0
    endloop
  endfacet
  facet normal 0 0 -1
    outer loop
      vertex 0.4436604933785223 15.293143854874518 0
      vertex 1.758433469765449 17.48671004420113 0
      vertex 2.0101745741222476 17.63759785541221 0
    endloop
  endfacet
  facet normal 0 0 -1
    outer loop
      vertex 0.5580395514675603 15.868166210677696 0
      vertex 1.5226941593994676 17.311873855890408 0
      vertex 1.758433469765449 17.48671004420113 0
    endloop
  endfacet
  facet normal 0 0 -1
    outer loop
      vertex 1.108126144109592 13.102694159399467 0
      vertex 2.5518337893223024 17.86196044853244 0
      vertex 2.836535425822135 17.933274496020772 0
    endloop
  endfacet
  facet normal 0 0 -1
    outer loop
      vertex 1.3052269414513435 12.885226941451345 0
      vertex 2.836535425822135 17.933274496020772 0
      vertex 3.1268561451254806 17.97633950662148 0
    endloop
  endfacet
  facet normal 0 0 -1
    outer loop
      vertex 1.3052269414513435 12.885226941451345 0
      vertex 3.1268561451254806 17.97633950662148 0
      vertex 3.42 17.99074074074074 0
    endloop
  endfacet
  facet normal 0 0 -1
    outer loop
      vertex 1.3052269414513435 12.885226941451345 0
      vertex 3.42 17.99074074074074 0
      vertex 3.7131438548745193 17.97633950662148 0
    endloop
  endfacet
  facet normal 0 0 -1
    outer loop
      vertex 1.3052269414513435 12.885226941451345 0
      vertex 3.7131438548745193 17.97633950662148 0
      vertex 4.003464574177865 17.933274496020772 0
    endloop
  endfacet
  facet normal 0 0 -1
    outer loop
      vertex 1.3052269414513435 12.885226941451345 0
      vertex 4.003464574177865 17.933274496020772 0
      vertex 4.288166210677698 17.86196044853244 0
    endloop
  endfacet
  facet normal 0 0 -1
    outer loop
      vertex 1.3052269414513435 12.885226941451345 0
      vertex 4.288166210677698 17.86196044853244 0
      vertex 4.564506931980778 17.763084157418014 0
    endloop
  endfacet
  facet normal 0 0 1
    outer loop
      vertex 2.7131030544636703 12.669673071318789 0.6
      vertex 1.3952175181891722 16.35291640077922 0.6
      vertex 1.2723584025590982 16.14793834986331 0.6
    endloop
  endfacet
  facet normal 0 0 1
    outer loop
      vertex 2.944918938053317 12.611606215314357 0.6
      vertex 1.5375763959777793 16.544865127176283 0.6
      vertex 1.3952175181891722 16.35291640077922 0.6
    endloop
  endfacet
  facet normal 0 0 1
    outer loop
      vertex 3.1813101119752365 12.576540897085298 0.6
      vertex 1.6980640421105369 16.721935957889464 0.6
      vertex 1.5375763959777793 16.544865127176283 0.6
    endloop
  endfacet
  facet normal 0 0 1
    outer loop
      vertex 1.8751348728237152 16.88242360402222 0.6
      vertex 1.6980640421105369 16.721935957889464 0.6
      vertex 5.141935957889463 13.278064042110538 0.6
    endloop
  endfacet
  facet normal 0 0 1
    outer loop
      vertex 1.8751348728237152 16.88242360402222 0.6
      vertex 5.141935957889463 13.278064042110538 0.6
      vertex 2.0670835992207834 17.024782481810828 0.6
    endloop
  endfacet
  facet normal 0 0 1
    outer loop
      vertex 2.0670835992207834 17.024782481810828 0.6
      vertex 5.141935957889463 13.278064042110538 0.6
      vertex 2.272061650136691 17.147641597440902 0.6
    endloop
  endfacet
  facet normal 0 0 1
    outer loop
      vertex 2.4880949748887167 17.249817750467297 0.6
      vertex 2.272061650136691 17.147641597440902 0.6
      vertex 5.141935957889463 13.278064042110538 0.6
    endloop
  endfacet
  facet normal 0 0 -1
    outer loop
      vertex 2.5518337893223024 12.13803955146756 0
      vertex 2.2754930680192222 12.236915842581984 0
      vertex 5.534773058548656 17.114773058548657 0
    endloop
  endfacet
  facet normal 0 0 -1
    outer loop
      vertex 2.836535425822135 12.066725503979228 0
      vertex 2.5518337893223024 12.13803955146756 0
      vertex 5.534773058548656 17.114773058548657 0
    endloop
  endfacet
  facet normal 0 0 -1
    outer loop
      vertex 3.1268561451254806 12.023660493378522 0
      vertex 2.836535425822135 12.066725503979228 0
      vertex 5.534773058548656 17.114773058548657 0
    endloop
  endfacet
  facet normal 0 0 -1
    outer loop
      vertex 3.1268561451254806 12.023660493378522 0
      vertex 5.534773058548656 17.114773058548657 0
      vertex 3.42 12.00925925925926 0
    endloop
  endfacet
  facet normal 0 0 -1
    outer loop
      vertex 3.42 12.00925925925926 0
      vertex 5.534773058548656 17.114773058548657 0
      vertex 3.7131438548745193 12.023660493378522 0
    endloop
  endfacet
  facet normal 0 0 -1
    outer loop
      vertex 3.7131438548745193 12.023660493378522 0
      vertex 5.731873855890408 16.89730584060053 0
      vertex 4.003464574177865 12.066725503979228 0
    endloop
  endfacet
  facet normal 0 0 -1
    outer loop
      vertex 4.003464574177865 12.066725503979228 0
      vertex 5.90671004420113 16.661566530234552 0
      vertex 4.288166210677698 12.13803955146756 0
    endloop
  endfacet
  facet normal 0 0 -1
    outer loop
      vertex 5.081566530234551 12.51328995579887 0
      vertex 6.281960448532439 14.131833789322304 0
      vertex 5.3173058406005325 12.688126144109592 0
    endloop
  endfacet
  facet normal 0 0 -1
    outer loop
      vertex 4.829825425877752 12.36240214458779 0
      vertex 6.396339506621477 14.706856145125482 0
      vertex 5.081566530234551 12.51328995579887 0
    endloop
  endfacet
  facet normal 0 0 -1
    outer loop
      vertex 5.3173058406005325 12.688126144109592 0
      vertex 6.183084157418015 13.855493068019223 0
      vertex 5.534773058548656 12.885226941451345 0
    endloop
  endfacet
  facet normal 0 0 -1
    outer loop
      vertex 5.534773058548656 12.885226941451345 0
      vertex 6.183084157418015 13.855493068019223 0
      vertex 5.731873855890408 13.102694159399467 0
    endloop
  endfacet
  facet normal 0 0 -1
    outer loop
      vertex 5.731873855890408 13.102694159399467 0
      vertex 6.05759785541221 13.590174574122248 0
      vertex 5.90671004420113 13.338433469765448 0
    endloop
  endfacet
  facet normal 0 0 -1
    outer loop
      vertex 4.288166210677698 12.13803955146756 0
      vertex 6.05759785541221 16.409825425877752 0
      vertex 4.564506931980778 12.236915842581984 0
    endloop
  endfacet
  facet normal 0 0 -1
    outer loop
      vertex 4.564506931980778 12.236915842581984 0
      vertex 6.05759785541221 16.409825425877752 0
      vertex 4.829825425877752 12.36240214458779 0
    endloop
  endfacet
  facet normal 0 0 -1
    outer loop
      vertex 5.3173058406005325 12.688126144109592 0
      vertex 6.281960448532439 14.131833789322304 0
      vertex 6.183084157418015 13.855493068019223 0
    endloop
  endfacet
  facet normal 0 0 -1
    outer loop
      vertex 5.081566530234551 12.51328995579887 0
      vertex 6.353274496020773 14.416535425822136 0
      vertex 6.281960448532439 14.131833789322304 0
    endloop
  endfacet
  facet normal 0 0 -1
    outer loop
      vertex 5.731873855890408 13.102694159399467 0
      vertex 6.183084157418015 13.855493068019223 0
      vertex 6.05759785541221 13.590174574122248 0
    endloop
  endfacet
  facet normal 0 0 -1
    outer loop
      vertex 4.829825425877752 12.36240214458779 0
      vertex 6.41074074074074 15 0
      vertex 6.396339506621477 14.706856145125482 0
    endloop
  endfacet
  facet normal 0 0 -1
    outer loop
      vertex 5.081566530234551 12.51328995579887 0
      vertex 6.396339506621477 14.706856145125482 0
      vertex 6.353274496020773 14.416535425822136 0
    endloop
  endfacet
  facet normal 0 0 -1
    outer loop
      vertex 4.829825425877752 12.36240214458779 0
      vertex 6.396339506621477 15.293143854874518 0
      vertex 6.41074074074074 15 0
    endloop
  endfacet
  facet normal 0 0 -1
    outer loop
      vertex 4.829825425877752 12.36240214458779 0
      vertex 6.281960448532439 15.868166210677696 0
      vertex 6.353274496020773 15.583464574177864 0
    endloop
  endfacet
  facet normal 0 0 -1
    outer loop
      vertex 4.829825425877752 12.36240214458779 0
      vertex 6.353274496020773 15.583464574177864 0
      vertex 6.396339506621477 15.293143854874518 0
    endloop
  endfacet
  facet normal 0 0 -1
    outer loop
      vertex 4.829825425877752 12.36240214458779 0
      vertex 6.183084157418015 16.14450693198078 0
      vertex 6.281960448532439 15.868166210677696 0
    endloop
  endfacet
  facet normal 0 0 -1
    outer loop
      vertex 4.829825425877752 12.36240214458779 0
      vertex 6.05759785541221 16.409825425877752 0
      vertex 6.183084157418015 16.14450693198078 0
    endloop
  endfacet
  facet normal 0 0 1
    outer loop
      vertex 1.6980640421105369 16.721935957889464 0.6
      vertex 4.351905025111283 12.7501822495327 0.6
      vertex 4.567938349863309 12.852358402559098 0.6
    endloop
  endfacet
  facet normal 0 0 1
    outer loop
      vertex 1.6980640421105369 16.721935957889464 0.6
      vertex 4.567938349863309 12.852358402559098 0.6
      vertex 4.772916400779216 12.975217518189172 0.6
    endloop
  endfacet
  facet normal 0 0 1
    outer loop
      vertex 1.6980640421105369 16.721935957889464 0.6
      vertex 4.772916400779216 12.975217518189172 0.6
      vertex 4.964865127176284 13.11757639597778 0.6
    endloop
  endfacet
  facet normal 0 0 1
    outer loop
      vertex 1.6980640421105369 16.721935957889464 0.6
      vertex 4.964865127176284 13.11757639597778 0.6
      vertex 5.141935957889463 13.278064042110538 0.6
    endloop
  endfacet
  facet normal 0 0 1
    outer loop
      vertex 5.141935957889463 13.278064042110538 0.6
      vertex 5.30242360402222 13.455134872823715 0.6
      vertex 3.6586898880247634 17.423459102914702 0.6
    endloop
  endfacet
  facet normal 0 0 1
    outer loop
      vertex 5.30242360402222 13.455134872823715 0.6
      vertex 5.444782481810828 13.647083599220784 0.6
      vertex 4.12689694553633 17.33032692868121 0.6
    endloop
  endfacet
  facet normal 0 0 1
    outer loop
      vertex 5.444782481810828 13.647083599220784 0.6
      vertex 5.567641597440901 13.85206165013669 0.6
      vertex 4.12689694553633 17.33032692868121 0.6
    endloop
  endfacet
  facet normal 0 0 -1
    outer loop
      vertex 1.3052269414513435 12.885226941451345 0
      vertex 4.564506931980778 17.763084157418014 0
      vertex 4.829825425877752 17.63759785541221 0
    endloop
  endfacet
  facet normal 0 0 -1
    outer loop
      vertex 1.3052269414513435 12.885226941451345 0
      vertex 4.829825425877752 17.63759785541221 0
      vertex 5.081566530234551 17.48671004420113 0
    endloop
  endfacet
  facet normal 0 0 -1
    outer loop
      vertex 1.3052269414513435 12.885226941451345 0
      vertex 5.081566530234551 17.48671004420113 0
      vertex 5.3173058406005325 17.311873855890408 0
    endloop
  endfacet
  facet normal 0 0 -1
    outer loop
      vertex 1.3052269414513435 12.885226941451345 0
      vertex 5.3173058406005325 17.311873855890408 0
      vertex 5.534773058548656 17.114773058548657 0
    endloop
  endfacet
  facet normal 0 0 -1
    outer loop
      vertex 3.7131438548745193 12.023660493378522 0
      vertex 5.534773058548656 17.114773058548657 0
      vertex 5.731873855890408 16.89730584060053 0
    endloop
  endfacet
  facet normal 0 0 -1
    outer loop
      vertex 4.003464574177865 12.066725503979228 0
      vertex 5.731873855890408 16.89730584060053 0
      vertex 5.90671004420113 16.661566530234552 0
    endloop
  endfacet
  facet normal 0 0 -1
    outer loop
      vertex 4.288166210677698 12.13803955146756 0
      vertex 5.90671004420113 16.661566530234552 0
      vertex 6.05759785541221 16.409825425877752 0
    endloop
  endfacet
  facet normal 0 0 1
    outer loop
      vertex 2.4880949748887167 17.249817750467297 0.6
      vertex 5.141935957889463 13.278064042110538 0.6
      vertex 2.7131030544636703 17.33032692868121 0.6
    endloop
  endfacet
  facet normal 0 0 1
    outer loop
      vertex 2.7131030544636703 17.33032692868121 0.6
      vertex 5.141935957889463 13.278064042110538 0.6
      vertex 2.944918938053317 17.388393784685643 0.6
    endloop
  endfacet
  facet normal 0 0 1
    outer loop
      vertex 2.944918938053317 17.388393784685643 0.6
      vertex 5.141935957889463 13.278064042110538 0.6
      vertex 3.1813101119752365 17.423459102914702 0.6
    endloop
  endfacet
  facet normal 0 0 1
    outer loop
      vertex 3.1813101119752365 17.423459102914702 0.6
      vertex 5.141935957889463 13.278064042110538 0.6
      vertex 3.42 17.435185185185187 0.6
    endloop
  endfacet
  facet normal 0 0 1
    outer loop
      vertex 5.141935957889463 13.278064042110538 0.6
      vertex 3.6586898880247634 17.423459102914702 0.6
      vertex 3.42 17.435185185185187 0.6
    endloop
  endfacet
  facet normal 0 0 1
    outer loop
      vertex 5.30242360402222 13.455134872823715 0.6
      vertex 3.8950810619466827 17.388393784685643 0.6
      vertex 3.6586898880247634 17.423459102914702 0.6
    endloop
  endfacet
  facet normal 0 0 1
    outer loop
      vertex 5.30242360402222 13.455134872823715 0.6
      vertex 4.12689694553633 17.33032692868121 0.6
      vertex 3.8950810619466827 17.388393784685643 0.6
    endloop
  endfacet
  facet normal 0 0 1
    outer loop
      vertex 5.567641597440901 13.85206165013669 0.6
      vertex 4.567938349863309 17.147641597440902 0.6
      vertex 4.351905025111283 17.249817750467297 0.6
    endloop
  endfacet
  facet normal 0 0 1
    outer loop
      vertex 5.567641597440901 13.85206165013669 0.6
      vertex 4.351905025111283 17.249817750467297 0.6
      vertex 4.12689694553633 17.33032692868121 0.6
    endloop
  endfacet
  facet normal 0 0 1
    outer loop
      vertex 5.567641597440901 13.85206165013669 0.6
      vertex 5.6698177504673 14.068094974888716 0.6
      vertex 4.567938349863309 17.147641597440902 0.6
    endloop
  endfacet
  facet normal 0 0 1
    outer loop
      vertex 5.6698177504673 14.068094974888716 0.6
      vertex 5.750326928681212 14.293103054463671 0.6
      vertex 4.567938349863309 17.147641597440902 0.6
    endloop
  endfacet
  facet normal 0 0 1
    outer loop
      vertex 5.750326928681212 14.293103054463671 0.6
      vertex 5.808393784685644 14.524918938053318 0.6
      vertex 4.567938349863309 17.147641597440902 0.6
    endloop
  endfacet
  facet normal 0 0 1
    outer loop
      vertex 5.808393784685644 14.524918938053318 0.6
      vertex 5.843459102914702 14.761310111975236 0.6
      vertex 4.567938349863309 17.147641597440902 0.6
    endloop
  endfacet
  facet normal 0 0 1
    outer loop
      vertex 5.855185185185185 15 0.6
      vertex 4.772916400779216 17.024782481810828 0.6
      vertex 5.843459102914702 14.761310111975236 0.6
    endloop
  endfacet
  facet normal 0 0 1
    outer loop
      vertex 4.964865127176284 16.88242360402222 0.6
      vertex 5.855185185185185 15 0.6
      vertex 5.843459102914702 15.238689888024764 0.6
    endloop
  endfacet
  facet normal 0 0 1
    outer loop
      vertex 5.843459102914702 14.761310111975236 0.6
      vertex 4.772916400779216 17.024782481810828 0.6
      vertex 4.567938349863309 17.147641597440902 0.6
    endloop
  endfacet
  facet normal 0 0 1
    outer loop
      vertex 4.772916400779216 17.024782481810828 0.6
      vertex 5.855185185185185 15 0.6
      vertex 4.964865127176284 16.88242360402222 0.6
    endloop
  endfacet
  facet normal 0 0 1
    outer loop
      vertex 5.141935957889463 16.721935957889464 0.6
      vertex 5.843459102914702 15.238689888024764 0.6
      vertex 5.808393784685644 15.475081061946682 0.6
    endloop
  endfacet
  facet normal 0 0 1
    outer loop
      vertex 5.750326928681212 15.706896945536329 0.6
      vertex 5.141935957889463 16.721935957889464 0.6
      vertex 5.808393784685644 15.475081061946682 0.6
    endloop
  endfacet
  facet normal 0 0 1
    outer loop
      vertex 5.750326928681212 15.706896945536329 0.6
      vertex 5.6698177504673 15.931905025111284 0.6
      vertex 5.30242360402222 16.544865127176283 0.6
    endloop
  endfacet
  facet normal 0 0 1
    outer loop
      vertex 5.141935957889463 16.721935957889464 0.6
      vertex 4.964865127176284 16.88242360402222 0.6
      vertex 5.843459102914702 15.238689888024764 0.6
    endloop
  endfacet
  facet normal 0 0 1
    outer loop
      vertex 5.444782481810828 16.35291640077922 0.6
      vertex 5.30242360402222 16.544865127176283 0.6
      vertex 5.6698177504673 15.931905025111284 0.6
    endloop
  endfacet
  facet normal 0 0 1
    outer loop
      vertex 5.30242360402222 16.544865127176283 0.6
      vertex 5.141935957889463 16.721935957889464 0.6
      vertex 5.750326928681212 15.706896945536329 0.6
    endloop
  endfacet
  facet normal 0 0 1
    outer loop
      vertex 5.567641597440901 16.14793834986331 0.6
      vertex 5.444782481810828 16.35291640077922 0.6
      vertex 5.6698177504673 15.931905025111284 0.6
    endloop
  endfacet
endsolid OpenSCAD_Model
